# xmcd CD database file
#
# Track frame offsets:
#	150
#	13197
#	25845
#	38342
#	51265
#	65095
#	79329
#	92872
#	105885
#	119995
#	132805
#	145087
#	158560
#	170107
#	184057
#	197460
#	212032
#	226342
#	241432
#	254742
#	266972
#
# Disc length: 3741 seconds
#
# Revision: 0
# Processed by: cddbd v1.5.1PL0 Copyright (c) Steve Scherf et al.
# Submitted via: CDex 1.51
#
DISCID=300e9b15
DTITLE=Earl Hines - Earl Hines and his Orchestra 1947-1949
DYEAR=1947
DGENRE=Jazz
TTITLE0=Blues for Garroway
TTITLE1=Honeysuckle Rose
TTITLE2=Dark Eyes
TTITLE3=The Sheik of Araby
TTITLE4=No Good Woman Blues
TTITLE5=Bow Legged Mama
TTITLE6=My Name is on the Doorbell
TTITLE7=Bama-Lama Lam
TTITLE8=Spooky Boogle
TTITLE9=The Day will Come
TTITLE10=Keyboard Kapers
TTITLE11=Lazy Mornin'
TTITLE12=Bop Omlette
TTITLE13=I Never Dreamt
TTITLE14=Snappy Rhythm
TTITLE15=Chicago
TTITLE16=Night Life In Pompeii
TTITLE17=Japenese Sandman
TTITLE18=Rhythm Business
TTITLE19=Tea for Two
TTITLE20=Air France Stomp
EXTD=YEAR: 1947
EXTT0=
EXTT1=
EXTT2=
EXTT3=
EXTT4=
EXTT5=
EXTT6=
EXTT7=
EXTT8=
EXTT9=
EXTT10=
EXTT11=
EXTT12=
EXTT13=
EXTT14=
EXTT15=
EXTT16=
EXTT17=
EXTT18=
EXTT19=
EXTT20=
PLAYORDER=
